<svg id="Component_89_1" data-name="Component 89 – 1" xmlns="http://www.w3.org/2000/svg" width="28" height="28" viewBox="0 0 28 28">
  <rect id="Rectangle_1035" data-name="Rectangle 1035" width="28" height="28" rx="14" fill="#f500a3"/>
  <path id="iconmonstr-instagram-11" d="M9.813,1.769c2.62,0,2.931.01,3.966.057,2.659.121,3.9,1.383,4.022,4.022.047,1.034.056,1.345.056,3.965s-.01,2.931-.056,3.965c-.122,2.637-1.361,3.9-4.022,4.022-1.035.047-1.344.057-3.966.057s-2.931-.01-3.965-.057c-2.666-.122-3.9-1.389-4.022-4.023-.047-1.034-.057-1.344-.057-3.965s.011-2.93.057-3.965c.122-2.639,1.361-3.9,4.022-4.022,1.035-.047,1.345-.056,3.965-.056ZM9.813,0c-2.665,0-3,.011-4.045.059C2.2.222.223,2.2.06,5.766.011,6.814,0,7.148,0,9.813s.011,3,.059,4.046C.222,17.422,2.2,19.4,5.766,19.566c1.047.047,1.381.059,4.046.059s3-.011,4.046-.059c3.56-.164,5.546-2.141,5.707-5.708.048-1.047.06-1.381.06-4.046s-.011-3-.059-4.045c-.16-3.56-2.14-5.544-5.707-5.708C12.812.011,12.477,0,9.813,0Zm0,4.774a5.039,5.039,0,1,0,5.039,5.039A5.039,5.039,0,0,0,9.813,4.774Zm0,8.31a3.271,3.271,0,1,1,3.271-3.271A3.27,3.27,0,0,1,9.813,13.083ZM15.051,3.4a1.178,1.178,0,1,0,1.177,1.177A1.178,1.178,0,0,0,15.051,3.4Z" transform="translate(4.498 4.189)" fill="#fff"/>
</svg>
