<svg id="attachment-2" xmlns="http://www.w3.org/2000/svg" width="24" height="24" viewBox="0 0 24 24">
  <path id="Path_598" data-name="Path 598" d="M0,0H24V24H0Z" fill="none"/>
  <path id="Path_599" data-name="Path 599" d="M14.828,7.757,9.172,13.414a1,1,0,1,0,1.414,1.414l5.657-5.656A3,3,0,0,0,12,4.929L6.343,10.586a5,5,0,1,0,7.071,7.07L19.071,12l1.414,1.414-5.657,5.657a7,7,0,1,1-9.9-9.9l5.658-5.656a5,5,0,1,1,7.071,7.071L12,16.244A3,3,0,0,1,7.757,12l5.657-5.657,1.414,1.414Z" transform="translate(0)" fill="#c9c9c9"/>
</svg>
