<svg id="trolley" xmlns="http://www.w3.org/2000/svg" width="27.258" height="22.714" viewBox="0 0 27.258 22.714">
  <path id="Path_393" data-name="Path 393" d="M21.682,21.036H11.467A3.3,3.3,0,0,1,8.29,18.685L4.837,6.986a1.022,1.022,0,0,0-1-.714H1.136A1.136,1.136,0,1,1,1.136,4H3.841A3.3,3.3,0,0,1,7.018,6.351l.646,2.192H25.035a2.239,2.239,0,0,1,1.8.9,2.146,2.146,0,0,1,.327,1.926l-2.343,7.437a3.3,3.3,0,0,1-3.135,2.227Zm3.354-10.221h.011Z" transform="translate(0 -4)" fill="#606062"/>
  <path id="Path_394" data-name="Path 394" d="M11.271,24.543a2.271,2.271,0,1,1,2.271-2.271A2.274,2.274,0,0,1,11.271,24.543Zm0-2.273h0Z" transform="translate(1.221 -1.829)" fill="#606062"/>
  <path id="Path_395" data-name="Path 395" d="M18.271,24.543a2.271,2.271,0,1,1,2.271-2.271A2.274,2.274,0,0,1,18.271,24.543Zm0-2.273h0Z" transform="translate(2.171 -1.829)" fill="#606062"/>
</svg>
