<svg id="service-line" xmlns="http://www.w3.org/2000/svg" width="17.793" height="17.793" viewBox="0 0 17.793 17.793">
  <path id="Path_613" data-name="Path 613" d="M0,0H17.793V17.793H0Z" fill="none"/>
  <path id="Path_614" data-name="Path 614" d="M2.71,4.067a4.843,4.843,0,0,1,6.746-.259,4.842,4.842,0,0,1,6.739.255,5.255,5.255,0,0,1,.264,6.966l-5.925,6.145a1.49,1.49,0,0,1-2.075.08l-.084-.08L2.45,11.029A5.255,5.255,0,0,1,2.71,4.067ZM3.789,5.182a3.637,3.637,0,0,0-.111,4.9l.111.121L9.455,16.06,13.5,11.876,10.8,9.087l-.809.836a2.237,2.237,0,0,1-3.238,0,2.424,2.424,0,0,1,0-3.347l1.6-1.659a3.35,3.35,0,0,0-4.454.149l-.118.115Zm6.475,2.231a.746.746,0,0,1,1.079,0L14.58,10.76l.54-.557a3.636,3.636,0,0,0,.057-4.962,3.354,3.354,0,0,0-4.8-.174l-.117.115L7.836,7.693a.809.809,0,0,0-.06,1.047l.06.069a.745.745,0,0,0,1.013.062l.066-.062Z" transform="translate(-0.558 -1.139)" fill="#4cc334"/>
</svg>
