<svg xmlns="http://www.w3.org/2000/svg" width="12.365" height="16.487" viewBox="0 0 12.365 16.487">
  <path id="Path_38" data-name="Path 38" d="M17.541,9.519,20.473,5.3a.294.294,0,0,1,.536.168V9a.293.293,0,0,1-.051.166l-1.814,2.652Zm-6.489,9.327a.295.295,0,0,0,.078.413L12.9,20.437a.294.294,0,0,0,.406-.079l3.522-5.148L15.217,12.86Zm12.26,0L13.891,5.3a.294.294,0,0,0-.536.168V9a.293.293,0,0,0,.051.166l7.655,11.187a.294.294,0,0,0,.406.079l1.766-1.178a.295.295,0,0,0,.078-.413ZM14.375,4.968l1.441,2.071a9.885,9.885,0,0,1,2.733,0L19.99,4.967a.88.88,0,0,1,.424-.319A6.929,6.929,0,0,0,17.182,4a6.929,6.929,0,0,0-3.231.649.878.878,0,0,1,.424.319Z" transform="translate(-11 -4)" fill="#707070"/>
</svg>
