<svg xmlns="http://www.w3.org/2000/svg" width="10" height="12.333" viewBox="0 0 10 12.333">
  <path id="Union_130" data-name="Union 130" d="M2.308,12.333a1.172,1.172,0,0,1-1.154-1.185V4.037H8.847v7.111a1.172,1.172,0,0,1-1.154,1.185ZM6.154,5.2V9.989a.385.385,0,0,0,.77,0V5.2a.385.385,0,0,0-.77,0Zm-3.077,0V9.989a.385.385,0,0,0,.77,0V5.2a.385.385,0,0,0-.77,0Zm5-2.056H.385A.42.42,0,0,1,0,2.691a.42.42,0,0,1,.385-.449H1.923v-.9A1.262,1.262,0,0,1,3.077,0H6.923A1.262,1.262,0,0,1,8.077,1.345v.9H9.615A.42.42,0,0,1,10,2.691a.42.42,0,0,1-.385.448Zm-.769-.9v-.9A.421.421,0,0,0,6.923.9H3.077a.421.421,0,0,0-.384.449v.9Z" fill="#9a9a9a"/>
</svg>
