<svg id="file_download_black_24dp" xmlns="http://www.w3.org/2000/svg" width="24" height="24" viewBox="0 0 24 24">
  <g id="Group_565" data-name="Group 565">
    <rect id="Rectangle_1897" data-name="Rectangle 1897" width="24" height="24" fill="none"/>
  </g>
  <g id="Group_566" data-name="Group 566">
    <path id="Path_1706" data-name="Path 1706" d="M16.59,9H15V4a1,1,0,0,0-1-1H10A1,1,0,0,0,9,4V9H7.41a1,1,0,0,0-.71,1.71l4.59,4.59a1,1,0,0,0,1.41,0l4.59-4.59A1,1,0,0,0,16.59,9ZM5,19a1,1,0,0,0,1,1H18a1,1,0,0,0,0-2H6A1,1,0,0,0,5,19Z" fill="#989898"/>
  </g>
</svg>
