<svg xmlns="http://www.w3.org/2000/svg" width="24" height="24" viewBox="0 0 24 24">
  <g id="Group_1295" data-name="Group 1295" transform="translate(-330 -509)">
    <g id="Group_581" data-name="Group 581" transform="translate(105 142)">
      <circle id="Ellipse_299" data-name="Ellipse 299" cx="12" cy="12" r="12" transform="translate(225 367)" fill="#2e76fc"/>
    </g>
    <g id="pencil" transform="translate(338 515.686)">
      <path id="Path_547" data-name="Path 547" d="M5.384,82.473l-4.8,4.8a.191.191,0,0,0-.05.088L.005,89.492a.189.189,0,0,0,.229.229l2.134-.532a.189.189,0,0,0,.088-.05l4.8-4.8Zm0,0" transform="translate(0 -80.771)" fill="#fff"/>
      <path id="Path_548" data-name="Path 548" d="M336.852,1.048l-.534-.534a.967.967,0,0,0-1.335,0l-.654.654L336.2,3.037l.654-.654a.944.944,0,0,0,0-1.335Zm0,0" transform="translate(-328.41 0)" fill="#fff"/>
    </g>
  </g>
</svg>
