<svg xmlns="http://www.w3.org/2000/svg" width="22.571" height="16.133" viewBox="0 0 22.571 16.133">
  <path id="Path_1873" data-name="Path 1873" d="M10.473,29.2,0,20.005c0-1.479,1.119-1.542,1.119-1.542H21.452s1.119.063,1.119,1.542L12.152,29.2a1.836,1.836,0,0,1-.28.113h0a1.658,1.658,0,0,1-1.119,0h0A1.86,1.86,0,0,1,10.473,29.2Zm.839,2.05a2.477,2.477,0,0,1-1.559-.691C8.555,29.519,0,21.8,0,21.8V33.316A1.265,1.265,0,0,0,1.319,34.6H21.252a1.266,1.266,0,0,0,1.319-1.279V21.8s-8.5,7.715-9.7,8.755A2.475,2.475,0,0,1,11.313,31.249Z" transform="translate(0 -18.463)" fill="#d1d1d1"/>
</svg>
