<svg xmlns="http://www.w3.org/2000/svg" xmlns:xlink="http://www.w3.org/1999/xlink" width="24" height="24" viewBox="0 0 24 24">
  <defs>
    <clipPath id="clip-path">
      <rect id="Rectangle_3262" data-name="Rectangle 3262" width="19.98" height="19.975" transform="translate(0 0)" fill="none"/>
    </clipPath>
  </defs>
  <g id="Group_1303" data-name="Group 1303" transform="translate(-1274.123 -227.994)">
    <g id="Group_1211" data-name="Group 1211" transform="translate(-41.778 208.594)">
      <path id="Path_1000" data-name="Path 1000" d="M12,0A12,12,0,1,1,0,12,12,12,0,0,1,12,0Z" transform="translate(1315.9 19.4)" fill="#d9d9d9"/>
    </g>
    <g id="Group_1302" data-name="Group 1302" transform="translate(1276.138 230.007)">
      <g id="Group_1301" data-name="Group 1301" clip-path="url(#clip-path)">
        <path id="Path_2428" data-name="Path 2428" d="M7.434.331v6.32H.574c.08-.22.17-.45.27-.67.05-.13.11-.25.17-.38a9.067,9.067,0,0,1,.59-1.05,10.765,10.765,0,0,1,1.29-1.6l.03-.03A10,10,0,0,1,7.354.351c.03-.01.06-.01.08-.02" fill="#00237c"/>
        <path id="Path_2429" data-name="Path 2429" d="M15.764,11.451l-.41.17-.45.18-.33.14-1.02.42-1.87.77-.21-.14-1.14-.75-.34-.23-.37-.24-1.09-.72-.06-.04-1.1-.72-.36-.24-.33-.22-2.05-1.35L3.9,8l-2.04-1.35-1.02-.67c.05-.13.11-.25.17-.38a9.067,9.067,0,0,1,.59-1.05,10.765,10.765,0,0,1,1.29-1.6l4.46,2.94.08.06,1.03.68,1.53,1.01.33.22.36.24,1.11.73.05.03,1.09.72.37.25.34.22Z" fill="#fff"/>
        <path id="Path_2430" data-name="Path 2430" d="M12.574,11.791l-.1.15-.58.85-.42-.28-.78-.51-.34-.23-.36-.24-1.1-.72-.05-.04-1.11-.72-.36-.24-.33-.22-1.96-1.3L4.644,8l-2.05-1.35L1.014,5.6a9.067,9.067,0,0,1,.59-1.05l3.19,2.1,1.64,1.08.4.27,1.31.86.69.46,1.1.73.06.04,1.09.72.37.24.34.22Z" fill="#cf142b"/>
        <path id="Path_2431" data-name="Path 2431" d="M19.414,6.651h-6.86V.331a.035.035,0,0,1,.02.01,9.854,9.854,0,0,1,4.48,2.58l.04.04a10.617,10.617,0,0,1,1.28,1.59,9.067,9.067,0,0,1,.59,1.05,3.263,3.263,0,0,1,.18.38c.1.22.19.45.27.67" fill="#00237c"/>
        <path id="Path_2432" data-name="Path 2432" d="M19.144,5.981l-1.02.67L16.074,8l-.72.48L13.3,9.831l-.33.22-.37.24-1.09.72-.06.04-1.09.72h-.01l-.36.24-.33.23h-.01l-1.19.78-.16.11-1.87-.77-1.02-.42-.34-.14-.44-.18-.41-.17,2.12-1.4.34-.22.36-.24,1.1-.73.05-.03,1.1-.73.37-.24.33-.22,1.48-.98,1.08-.71.02-.01,4.52-2.98a10.617,10.617,0,0,1,1.28,1.59,9.067,9.067,0,0,1,.59,1.05,3.263,3.263,0,0,1,.18.38" fill="#fff"/>
        <path id="Path_2433" data-name="Path 2433" d="M18.964,5.6l-1.58,1.05L15.334,8l-.44.29-1.95,1.29h-.01l-.33.22-.36.25h-.01l-1.09.72-.06.04-1.09.72-.37.24-.33.22-.83.55-.38.25-.57-.85-.1-.15.78-.52.34-.22.36-.24,1.1-.72.06-.04,1.09-.73.37-.24.33-.22L13.154,8l.4-.27,1.64-1.08,3.18-2.1a9.067,9.067,0,0,1,.59,1.05" fill="#cf142b"/>
        <path id="Path_2434" data-name="Path 2434" d="M19.364,13.451c-.08.22-.17.43-.27.64-.05.13-.11.25-.17.37a8.322,8.322,0,0,1-.61,1.04,9.714,9.714,0,0,1-1.26,1.55l-.04.04a10.034,10.034,0,0,1-4.44,2.55h-.02v-6.19Z" fill="#00237c"/>
        <path id="Path_2435" data-name="Path 2435" d="M19.094,14.091c-.05.13-.11.25-.17.37a8.322,8.322,0,0,1-.61,1.04,9.714,9.714,0,0,1-1.26,1.55l-.04.04-4.44-2.93-.02-.02-1.08-.71-1.48-.97-.33-.22h-.01l-.36-.25-1.1-.72-.05-.04-1.1-.72h-.01l-.36-.24-.33-.22-2.12-1.4.41-.17.45-.19L5.794,8l.64-.27,1.87-.77.16.11,1.2.79.33.22.36.24,1.1.72h.01l.05.04,1.09.72.37.25.34.22,2.04,1.35.49.32,2.04,1.35.24.16Z" fill="#fff"/>
        <path id="Path_2436" data-name="Path 2436" d="M18.924,14.461a8.322,8.322,0,0,1-.61,1.04l-3.11-2.05-.24-.16-1.41-.93-.64-.42-1.07-.71-.33-.22-.37-.24-1.09-.72-.06-.04-1.1-.73-.37-.24-.33-.21-.78-.52L7.624,8l.46-.7.38.25.83.55.33.22.37.24,1.1.73.05.03,1.1.73.36.24.34.22L14.9,11.8l.21.14,2.04,1.35.24.16Z" fill="#cf142b"/>
        <path id="Path_2437" data-name="Path 2437" d="M7.434,13.451v6.19a.309.309,0,0,1-.08-.02,9.812,9.812,0,0,1-4.38-2.53.176.176,0,0,1-.05-.04,9.714,9.714,0,0,1-1.26-1.55,8.322,8.322,0,0,1-.61-1.04c-.06-.12-.12-.24-.17-.37-.1-.21-.18-.42-.26-.64Z" fill="#00237c"/>
        <path id="Path_2438" data-name="Path 2438" d="M15.764,8.651l-2.12,1.4-.33.22-.37.24-1.1.72-.05.04-1.1.73-.36.24-.34.22-1.53,1.01-1.03.68-.08.05-4.38,2.89a.176.176,0,0,1-.05-.04,9.714,9.714,0,0,1-1.26-1.55,8.322,8.322,0,0,1-.61-1.04c-.06-.12-.12-.24-.17-.37l.97-.64.24-.16,2.05-1.35.49-.32,2.04-1.35.34-.22.36-.24,1.1-.73.05-.04,1.1-.72.37-.24.33-.22,1.15-.76.21-.14,1.87.77.64.27.7.29.46.19Z" fill="#fff"/>
        <path id="Path_2439" data-name="Path 2439" d="M12.574,8.311l-.78.52-.33.21-.37.25-1.1.72-.06.04-1.09.72-.37.24-.33.22-1.08.71-.63.42-1.41.93-.25.16L1.664,15.5a8.322,8.322,0,0,1-.61-1.04l1.53-1.01.24-.16,2.04-1.35.21-.14,1.96-1.29.34-.22.36-.24,1.1-.73.06-.04,1.1-.72.36-.24.33-.22.79-.52.42-.28.47.7Z" fill="#cf142b"/>
        <path id="Path_2440" data-name="Path 2440" d="M19.794,11.941a10.354,10.354,0,0,1-.37,1.35h-6.85v6.35h-.02a9.4,9.4,0,0,1-1.08.23,10.47,10.47,0,0,1-3.01-.01,7.571,7.571,0,0,1-1.03-.22.309.309,0,0,1-.08-.02v-6.33H.564a8.986,8.986,0,0,1-.37-1.35A9.863,9.863,0,0,1,.2,8a9.686,9.686,0,0,1,.37-1.35h6.78V.351c.03-.01.06-.01.08-.02a9.4,9.4,0,0,1,1.03-.21,9.8,9.8,0,0,1,3.01-.01,9.384,9.384,0,0,1,1.08.22.035.035,0,0,1,.02.01v6.31h6.84A11.3,11.3,0,0,1,19.784,8a10.242,10.242,0,0,1,.01,3.94" fill="#fff"/>
        <path id="Path_2441" data-name="Path 2441" d="M19.794,11.941h-8.32v7.93a10.47,10.47,0,0,1-3.01-.01v-7.92H.194A9.863,9.863,0,0,1,.2,8h8.26V.121a9.8,9.8,0,0,1,3.01-.01V8h8.31a10.242,10.242,0,0,1,.01,3.94" fill="#cf142b"/>
      </g>
    </g>
  </g>
</svg>
