<svg xmlns="http://www.w3.org/2000/svg" xmlns:xlink="http://www.w3.org/1999/xlink" width="24" height="24" viewBox="0 0 24 24">
  <defs>
    <clipPath id="clip-path">
      <path id="Path_2339" data-name="Path 2339" d="M10.591,0A10.591,10.591,0,1,1,0,10.591,10.591,10.591,0,0,1,10.591,0Z" transform="translate(51 158)" fill="#d9d9d9"/>
    </clipPath>
  </defs>
  <g id="Group_1187" data-name="Group 1187" transform="translate(-51 -158)">
    <g id="Mask_Group_83" data-name="Mask Group 83" transform="translate(1.654 1.408)" clip-path="url(#clip-path)">
      <g id="icon-01" transform="translate(48.585 158)">
        <rect id="Rectangle_3085" data-name="Rectangle 3085" width="23.598" height="21.183" transform="translate(0 0)" fill="#f9f7f7"/>
        <g id="Group_1186" data-name="Group 1186" transform="translate(2.183 0)">
          <path id="Path_2333" data-name="Path 2333" d="M4.422,7.872a7.4,7.4,0,0,1-.093,1.022h.929a7.4,7.4,0,0,1-.093-1.022,7.4,7.4,0,0,1,1.022.093V7.036s-.65.093-1.022.186A7.4,7.4,0,0,1,5.258,6.2H4.329a7.4,7.4,0,0,1,.093,1.022A7.4,7.4,0,0,1,3.4,7.129v.929A5.047,5.047,0,0,1,4.422,7.872Z" transform="translate(-0.892 -0.997)" fill="#e8112d"/>
          <path id="Path_2334" data-name="Path 2334" d="M5.165,16.122A7.4,7.4,0,0,1,5.258,15.1H4.329a7.4,7.4,0,0,1,.093,1.022A7.4,7.4,0,0,1,3.4,16.029v.929a7.4,7.4,0,0,1,1.022-.093,7.4,7.4,0,0,1-.093,1.022h.929a7.4,7.4,0,0,1-.093-1.022,7.4,7.4,0,0,1,1.022.093v-.929A5.518,5.518,0,0,0,5.165,16.122Z" transform="translate(-0.892 -1.629)" fill="#e8112d"/>
          <path id="Path_2335" data-name="Path 2335" d="M19.365,16.122a7.4,7.4,0,0,1,.093-1.022h-.929a7.4,7.4,0,0,1,.093,1.022,7.4,7.4,0,0,1-1.022-.093v.929a7.4,7.4,0,0,1,1.022-.093,7.4,7.4,0,0,1-.093,1.022h.929a7.4,7.4,0,0,1-.093-1.022,7.4,7.4,0,0,1,1.022.093v-.929A9.677,9.677,0,0,1,19.365,16.122Z" transform="translate(-1.899 -1.629)" fill="#e8112d"/>
          <path id="Path_2336" data-name="Path 2336" d="M18.715,7.865a7.4,7.4,0,0,1-.093,1.022h.929a3.876,3.876,0,0,1-.186-1.022,7.4,7.4,0,0,1,1.022.093V7.029a7.4,7.4,0,0,1-1.022.093A7.4,7.4,0,0,1,19.458,6.1h-.929a7.4,7.4,0,0,1,.093,1.022A7.4,7.4,0,0,1,17.6,7.029v.929A9.782,9.782,0,0,1,18.715,7.865Z" transform="translate(-1.899 -0.99)" fill="#e8112d"/>
          <path id="Path_2337" data-name="Path 2337" d="M12.592,9.891V.6H9.8V9.891H.7v2.787H9.8V21.69h2.787V12.678h9.1V9.891Z" transform="translate(-0.7 -0.6)" fill="#e8112d"/>
        </g>
      </g>
    </g>
    <g id="Path_2338" data-name="Path 2338" transform="translate(51 158)" fill="none">
      <path d="M12,0A12,12,0,1,1,0,12,12,12,0,0,1,12,0Z" stroke="none"/>
      <path d="M 11.99999904632568 2 C 6.485979080200195 2 1.999998092651367 6.485979080200195 1.999998092651367 12 C 1.999998092651367 17.51401901245117 6.485979080200195 22 11.99999904632568 22 C 17.51401901245117 22 22 17.51401901245117 22 12 C 22 6.485979080200195 17.51401901245117 2 11.99999904632568 2 M 11.99999904632568 0 C 18.62741851806641 0 24 5.372579574584961 24 12 C 24 18.62742042541504 18.62741851806641 24 11.99999904632568 24 C 5.372579574584961 24 -1.9073486328125e-06 18.62742042541504 -1.9073486328125e-06 12 C -1.9073486328125e-06 5.372579574584961 5.372579574584961 0 11.99999904632568 0 Z" stroke="none" fill="#d9d9d9"/>
    </g>
  </g>
</svg>
