<svg xmlns="http://www.w3.org/2000/svg" width="19.386" height="18.147" viewBox="0 0 19.386 18.147">
  <g id="Component_37_523" data-name="Component 37 – 523" transform="translate(1 1)">
    <path id="Path_15" data-name="Path 15" d="M8.685,19.7h0a.415.415,0,0,1-.234-.072C7.582,19.039-.006,13.7-.006,8.835c0-3.107,1.969-5.278,4.789-5.278a4.955,4.955,0,0,1,3.9,2.19,4.954,4.954,0,0,1,3.9-2.19c2.819,0,4.789,2.17,4.789,5.278,0,4.862-7.595,10.2-8.461,10.8A.413.413,0,0,1,8.685,19.7Z" transform="translate(0.006 -3.557)" fill="#fff" stroke="#707070" stroke-width="2"/>
  </g>
</svg>
