<svg xmlns="http://www.w3.org/2000/svg" width="28" height="28" viewBox="0 0 28 28">
  <path id="_13880855881556105710" data-name="13880855881556105710" d="M14,0A14,14,0,1,0,28,14,14,14,0,0,0,14,0ZM6.721,11.6H9.894v9.533H6.721ZM10.1,8.647A1.648,1.648,0,0,0,8.328,7a1.652,1.652,0,1,0-.041,3.294h.02A1.655,1.655,0,0,0,10.1,8.647Zm7.58,2.725c2.088,0,3.653,1.363,3.653,4.291v5.466H18.163v-5.1c0-1.281-.459-2.155-1.608-2.155a1.736,1.736,0,0,0-1.628,1.158,2.167,2.167,0,0,0-.1.773v5.324H11.65s.042-8.638,0-9.533h3.173v1.35A3.15,3.15,0,0,1,17.683,11.372Z" fill="#001a84" fill-rule="evenodd"/>
</svg>
