<svg id="layout-grid-line" xmlns="http://www.w3.org/2000/svg" width="17.793" height="17.793" viewBox="0 0 17.793 17.793">
  <path id="Path_607" data-name="Path 607" d="M0,0H17.793V17.793H0Z" fill="none"/>
  <path id="Path_608" data-name="Path 608" d="M16.791,3a.791.791,0,0,1,.778.8V16.654a.791.791,0,0,1-.778.8H2.778a.791.791,0,0,1-.778-.8V3.8A.791.791,0,0,1,2.778,3ZM9.006,11.032H3.557v4.819H9.006Zm7.006,0H10.563v4.819h5.449ZM9.006,4.606H3.557V9.425H9.006Zm7.006,0H10.563V9.425h5.449Z" transform="translate(-0.888 -1.332)" fill="#4cc334"/>
</svg>
