<svg xmlns="http://www.w3.org/2000/svg" width="30.863" height="19.572" viewBox="0 0 30.863 19.572">
  <g id="Group_154" data-name="Group 154" transform="translate(-9 -976.362)">
    <path id="Path_378" data-name="Path 378" d="M11.258,976.362a2.239,2.239,0,0,0-1.2.353l13.361,11.3a1.542,1.542,0,0,0,2.047,0l13.338-11.3a2.239,2.239,0,0,0-1.2-.353Zm-2.129,1.517A2.257,2.257,0,0,0,9,978.62v15.055a2.24,2.24,0,0,0,.365,1.223l9.562-8.714-9.8-8.306Zm30.6,0-9.774,8.292L39.5,994.9a2.24,2.24,0,0,0,.365-1.223V978.62A2.256,2.256,0,0,0,39.734,977.879Zm-10.927,9.28-2.376,2.011a3.085,3.085,0,0,1-3.987,0l-2.364-2-9.492,8.657a2.258,2.258,0,0,0,.67.106H37.6a2.256,2.256,0,0,0,.67-.106l-9.468-8.668Z" transform="translate(0 0)" fill="#707070"/>
  </g>
</svg>
