<svg xmlns="http://www.w3.org/2000/svg" width="21.8" height="15.582" viewBox="0 0 21.8 15.582">
  <path id="Path_245" data-name="Path 245" d="M10.116,28.833,0,19.952c0-1.429,1.081-1.489,1.081-1.489H20.719s1.081.061,1.081,1.489l-10.063,8.88a1.774,1.774,0,0,1-.27.109h0a1.6,1.6,0,0,1-1.081,0h0A1.8,1.8,0,0,1,10.116,28.833Zm.811,1.98a2.392,2.392,0,0,1-1.506-.668C8.262,29.141,0,21.69,0,21.69v11.12a1.222,1.222,0,0,0,1.274,1.235H20.526A1.222,1.222,0,0,0,21.8,32.809V21.69s-8.21,7.452-9.368,8.456A2.391,2.391,0,0,1,10.926,30.813Z" transform="translate(0 -18.463)" fill="#606062"/>
</svg>
