<svg id="Group_155" data-name="Group 155" xmlns="http://www.w3.org/2000/svg" width="18.764" height="11.899" viewBox="0 0 18.764 11.899">
  <path id="Path_378" data-name="Path 378" d="M10.373,976.362a1.362,1.362,0,0,0-.729.214l8.123,6.872a.937.937,0,0,0,1.244,0l8.109-6.872a1.362,1.362,0,0,0-.729-.214Zm-1.294.922a1.372,1.372,0,0,0-.079.45v9.153a1.361,1.361,0,0,0,.222.744l5.814-5.3-5.957-5.05Zm18.606,0-5.942,5.041,5.8,5.306a1.361,1.361,0,0,0,.222-.744v-9.153A1.371,1.371,0,0,0,27.685,977.284Zm-6.643,5.642L19.6,984.149a1.876,1.876,0,0,1-2.424,0l-1.437-1.216L9.965,988.2a1.374,1.374,0,0,0,.408.064H26.391a1.37,1.37,0,0,0,.408-.064l-5.756-5.27Z" transform="translate(-9 -976.362)" fill="#fff"/>
</svg>
