<svg xmlns="http://www.w3.org/2000/svg" width="18" height="18" viewBox="0 0 18 18">
  <g id="newspaper_black_24dp" transform="translate(0.274)">
    <g id="Group_281" data-name="Group 281">
      <rect id="Rectangle_1480" data-name="Rectangle 1480" width="18" height="18" transform="translate(-0.274)" fill="none"/>
    </g>
    <g id="Group_282" data-name="Group 282" transform="translate(1.5 2.25)">
      <path id="Path_722" data-name="Path 722" d="M17,3,15.747,4.253,14.5,3,13.25,4.253,12,3,10.753,4.253,9.5,3,8.247,4.253,7,3,5.75,4.253,4.5,3,3.253,4.253,2,3V15a1.5,1.5,0,0,0,1.5,1.5h12A1.5,1.5,0,0,0,17,15ZM8.75,15H3.5V10.5H8.75Zm6.75,0H10.25V13.5H15.5Zm0-3H10.25V10.5H15.5Zm0-3H3.5V6.75h12Z" transform="translate(-2 -3)" fill="#4cc334"/>
    </g>
  </g>
</svg>
