<svg xmlns="http://www.w3.org/2000/svg" width="17.756" height="20.292" viewBox="0 0 17.756 20.292">
  <path id="Path_244" data-name="Path 244" d="M25.756,17.219a1.268,1.268,0,0,1-1.268,1.268H9.268A1.268,1.268,0,0,1,8,17.219a1.241,1.241,0,0,1,.34-.86c.767-.831,2.2-2.061,2.2-6.115A6.257,6.257,0,0,1,15.61,4.095V3.268a1.268,1.268,0,1,1,2.537,0v.826a6.261,6.261,0,0,1,5.073,6.149c0,4.054,1.433,5.284,2.2,6.115a1.241,1.241,0,0,1,.338.86ZM14.341,19.756h5.073a2.537,2.537,0,1,1-5.073,0Z" transform="translate(-8 -2)" fill="#606062"/>
</svg>
