<svg id="account_balance_black_24dp" xmlns="http://www.w3.org/2000/svg" width="24" height="24" viewBox="0 0 24 24">
  <path id="Path_1761" data-name="Path 1761" d="M0,0H24V24H0Z" fill="none"/>
  <path id="Path_1762" data-name="Path 1762" d="M4,11.5v4a1.5,1.5,0,0,0,3,0v-4a1.5,1.5,0,0,0-3,0Zm6,0v4a1.5,1.5,0,0,0,3,0v-4a1.5,1.5,0,0,0-3,0ZM3.5,22h16a1.5,1.5,0,0,0,0-3H3.5a1.5,1.5,0,0,0,0,3ZM16,11.5v4a1.5,1.5,0,0,0,3,0v-4a1.5,1.5,0,0,0-3,0ZM10.57,1.49,2.67,5.65A1.245,1.245,0,0,0,3.25,8H19.76a1.245,1.245,0,0,0,.57-2.35l-7.9-4.16a1.976,1.976,0,0,0-1.86,0Z" fill="#d1d1d1"/>
</svg>
