<svg xmlns="http://www.w3.org/2000/svg" width="23.021" height="19.834" viewBox="0 0 23.021 19.834">
  <path id="Path_549" data-name="Path 549" d="M14.01,4.4C7.662,4.4,2.5,8.738,2.5,14.069a8.925,8.925,0,0,0,3.538,6.955c.912.8-.357,3.117-.357,3.117s4.38.469,5.591-.694a14.362,14.362,0,0,0,2.738.291c6.349,0,11.511-4.338,11.511-9.669S20.359,4.4,14.01,4.4ZM8.51,15.814a1.745,1.745,0,1,1,1.745-1.745A1.737,1.737,0,0,1,8.51,15.814Zm5.5,0a1.737,1.737,0,0,1-1.745-1.745A1.758,1.758,0,0,1,14.01,12.3a1.737,1.737,0,0,1,1.745,1.745A1.758,1.758,0,0,1,14.01,15.814Zm5.5,0a1.745,1.745,0,1,1,1.745-1.745A1.737,1.737,0,0,1,19.511,15.814Z" transform="translate(-2.5 -4.4)" fill="#2adf00"/>
</svg>
