<svg xmlns="http://www.w3.org/2000/svg" width="53.63" height="45.379" viewBox="0 0 53.63 45.379">
  <g id="quote-left" transform="translate(0 -36.545)">
    <g id="Group_199" data-name="Group 199" transform="translate(0 36.545)">
      <path id="Path_541" data-name="Path 541" d="M18.564,57.172h-7.22A3.081,3.081,0,0,1,8.25,54.078V53.047a7.949,7.949,0,0,1,2.418-5.834A7.951,7.951,0,0,1,16.5,44.8h2.063a2.091,2.091,0,0,0,2.063-2.063V38.608a2.091,2.091,0,0,0-2.063-2.063H16.5a16.081,16.081,0,0,0-6.4,1.305,16.345,16.345,0,0,0-8.8,8.8A16.073,16.073,0,0,0,0,53.047V75.736A5.968,5.968,0,0,0,1.8,80.12a5.969,5.969,0,0,0,4.384,1.8H18.565a6.161,6.161,0,0,0,6.188-6.188V63.36a6.163,6.163,0,0,0-6.189-6.188Z" transform="translate(0 -36.545)" fill="#41c227"/>
      <path id="Path_542" data-name="Path 542" d="M278.768,58.977a5.968,5.968,0,0,0-4.383-1.8h-7.219a3.081,3.081,0,0,1-3.094-3.094V53.047a8.252,8.252,0,0,1,8.251-8.251h2.062a2.092,2.092,0,0,0,2.063-2.063V38.608a2.092,2.092,0,0,0-2.063-2.063h-2.062a16.085,16.085,0,0,0-6.4,1.305,16.35,16.35,0,0,0-8.8,8.8,16.077,16.077,0,0,0-1.306,6.4V75.736a6.162,6.162,0,0,0,6.188,6.188h12.376a6.161,6.161,0,0,0,6.188-6.188V63.36A5.968,5.968,0,0,0,278.768,58.977Z" transform="translate(-226.941 -36.545)" fill="#41c227"/>
    </g>
  </g>
</svg>
