<svg xmlns="http://www.w3.org/2000/svg" width="26.999" height="26.843" viewBox="0 0 26.999 26.843">
  <g id="Group_1291" data-name="Group 1291" transform="translate(-1318.031 -75)">
    <path id="Exclusion_1" data-name="Exclusion 1" d="M13.262,25.934A13.439,13.439,0,0,1,8.1,24.915a13.238,13.238,0,0,1-4.215-2.779,12.911,12.911,0,0,1-2.842-4.122,12.744,12.744,0,0,1,0-10.095A12.911,12.911,0,0,1,3.884,3.8,13.238,13.238,0,0,1,8.1,1.019a13.585,13.585,0,0,1,10.324,0A13.238,13.238,0,0,1,22.639,3.8,12.912,12.912,0,0,1,25.481,7.92a12.744,12.744,0,0,1,0,10.095,12.912,12.912,0,0,1-2.842,4.122,13.238,13.238,0,0,1-4.215,2.779A13.438,13.438,0,0,1,13.262,25.934Zm0-22.572a9.517,9.517,0,0,0-9.4,9.605,9.517,9.517,0,0,0,9.4,9.605,9.517,9.517,0,0,0,9.4-9.605A9.517,9.517,0,0,0,13.262,3.362Z" transform="translate(1318.031 75)" fill="#42d921"/>
    <path id="Path_2" data-name="Path 2" d="M0,0,3.85.008l.015,7.219L.015,7.219Z" transform="translate(1337.188 96.732) rotate(-45)" fill="#42d921"/>
  </g>
</svg>
