<svg id="store-line" xmlns="http://www.w3.org/2000/svg" width="17.793" height="17.793" viewBox="0 0 17.793 17.793">
  <path id="Path_609" data-name="Path 609" d="M0,0H17.793V17.793H0Z" fill="none"/>
  <path id="Path_610" data-name="Path 610" d="M16.791,9.509v7.282a.778.778,0,0,1-.778.778H3.557a.778.778,0,0,1-.778-.778V9.509A3.1,3.1,0,0,1,2,7.449V2.778A.778.778,0,0,1,2.778,2H16.791a.778.778,0,0,1,.778.778V7.449A3.106,3.106,0,0,1,16.791,9.509Zm-1.557.956a3.119,3.119,0,0,1-3.114-.956,3.114,3.114,0,0,1-4.671,0,3.106,3.106,0,0,1-3.114.956v5.547h10.9ZM11.342,7.449a.778.778,0,1,1,1.557,0,1.557,1.557,0,1,0,3.114,0V3.557H3.557V7.449a1.557,1.557,0,1,0,3.114,0,.778.778,0,1,1,1.557,0,1.557,1.557,0,0,0,3.114,0Z" transform="translate(-0.888 -0.888)" fill="#4cc334"/>
</svg>
