<svg xmlns="http://www.w3.org/2000/svg" width="15.614" height="12.1" viewBox="0 0 15.614 12.1">
  <path id="Path_411" data-name="Path 411" d="M24.841,12.622H14.154l-.586-1.267a.405.405,0,0,0-.367-.237h-2.42a.409.409,0,0,0-.406.412v1.5a.409.409,0,0,0,.406.412h1.224l2.465,5.282-.892,1.648a1.881,1.881,0,0,0-.238.925,1.9,1.9,0,0,0,1.886,1.917H24.1a.409.409,0,0,0,.406-.412V21.3a.409.409,0,0,0-.406-.412H15.91l.369-.679h5.272a1.877,1.877,0,0,0,1.65-.989l2.646-4.874a1.169,1.169,0,0,0-1.006-1.729Z" transform="translate(-10.376 -11.118)" fill="#707070"/>
</svg>
