<svg id="hand-heart-line" xmlns="http://www.w3.org/2000/svg" width="17.793" height="17.793" viewBox="0 0 17.793 17.793">
  <path id="Path_611" data-name="Path 611" d="M0,0H17.793V17.793H0Z" fill="none"/>
  <path id="Path_612" data-name="Path 612" d="M4.014,7.775a.778.778,0,0,1,.754.8,5.059,5.059,0,0,1,3.263,1.2H9.666a3.3,3.3,0,0,1,2.527,1.2h2.372a3.757,3.757,0,0,1,3.4,2.284,9.721,9.721,0,0,1-7.925,4.125,10.371,10.371,0,0,1-5.32-1.328.756.756,0,0,1-.708.527H1.754a.778.778,0,0,1-.754-.8V8.576a.778.778,0,0,1,.754-.8Zm.754,2.4V14.2l.034.026a8.581,8.581,0,0,0,5.241,1.559,8.206,8.206,0,0,0,5.9-2.507l.1-.107-.09-.08a2.18,2.18,0,0,0-1.238-.5l-.154-.006H12.973a3.842,3.842,0,0,1,.084.8v.8H6.275v-1.6h5.117l-.026-.062A1.888,1.888,0,0,0,9.79,11.383l-.124,0H7.458a3.65,3.65,0,0,0-2.689-1.2Zm-1.508-.8H2.507v5.607h.754ZM10.53,3.429l.267.284.267-.284a1.806,1.806,0,0,1,2.664,0,2.093,2.093,0,0,1,0,2.832L10.8,9.377,7.865,6.261a2.093,2.093,0,0,1,0-2.832,1.806,1.806,0,0,1,2.664,0Zm-1.6,1.133a.42.42,0,0,0-.045.51l.044.055L10.8,7.11l1.866-1.982a.42.42,0,0,0,.044-.511l-.044-.056a.36.36,0,0,0-.481-.046l-.053.046L10.8,5.978,9.465,4.56l-.051-.045a.36.36,0,0,0-.481.046Z" transform="translate(-0.444 -1.262)" fill="#4cc334"/>
</svg>
