<svg xmlns="http://www.w3.org/2000/svg" width="133.534" height="127" viewBox="0 0 133.534 127">
  <g id="Go_to_Web_-_Orange" data-name="Go to Web - Orange" transform="translate(16.001 173.004)">
    <path id="Union_24" data-name="Union 24" d="M.376,120.364a10.778,10.778,0,0,1-.376-2.9V79.724a5.918,5.918,0,0,1,.082-1.136H18.508v30.385h96.463V78.6h18.481c0,.469.081.921.081,1.338v37.216c0,6.125-3.861,9.844-10.161,9.844H9.879C5,127,1.565,124.571.376,120.364ZM53.415,80.514v-43.6H39.126c-2.285-.226-2.8-1.242-1.4-3.008Q50.2,18.139,62.763,2.491c2.736-3.381,4-3.261,6.915,0q12.94,15.126,25.854,30.265a9.817,9.817,0,0,1,1.121,2.381,10.457,10.457,0,0,1-2.562.722c-4.222.079-8.439,0-12.661,0H79.853V80.552a2.511,2.511,0,0,1-1.644,2.755H54.99v.109A2.671,2.671,0,0,1,53.415,80.514Z" transform="translate(-16.001 -173.004)" fill="#f3f3f3"/>
  </g>
</svg>
