<svg id="Component_44_2" data-name="Component 44 – 2" xmlns="http://www.w3.org/2000/svg" xmlns:xlink="http://www.w3.org/1999/xlink" width="41" height="41" viewBox="0 0 41 41">
  <defs>
    <clipPath id="clip-path">
      <circle id="Ellipse_263" data-name="Ellipse 263" cx="20.5" cy="20.5" r="20.5" transform="translate(358 535)" fill="#fff"/>
    </clipPath>
  </defs>
  <g id="Mask_Group_64" data-name="Mask Group 64" transform="translate(-358 -535)" clip-path="url(#clip-path)">
    <circle id="Ellipse_259" data-name="Ellipse 259" cx="20.5" cy="20.5" r="20.5" transform="translate(358 535)" fill="#fff"/>
    <g id="Group_130" data-name="Group 130" transform="translate(362 539.001)">
      <path id="Path_272" data-name="Path 272" d="M47.9,55.969a13.968,13.968,0,0,0,7.574-6.919H50.3A20.944,20.944,0,0,1,47.9,55.969ZM56.873,42.95a13.942,13.942,0,0,0-.45-3.523H50.665c.113,1.135.173,2.314.173,3.523s-.06,2.388-.173,3.523h5.758A13.942,13.942,0,0,0,56.873,42.95Zm-21.811,0c0-1.209.06-2.388.173-3.523H29.477a14.021,14.021,0,0,0,0,7.046h5.758C35.122,45.338,35.062,44.159,35.062,42.95Zm13.2,0a33.381,33.381,0,0,0-.183-3.523H37.823a33.938,33.938,0,0,0,0,7.046H48.077A33.381,33.381,0,0,0,48.261,42.95ZM42.95,59.45A16.5,16.5,0,1,1,54.617,31.283a16.5,16.5,0,0,1,0,23.335A16.449,16.449,0,0,1,42.95,59.45Zm0-2.577c2.543,0,4.2-5.139,4.738-7.823H38.212C38.745,51.734,40.407,56.873,42.95,56.873ZM35.6,49.05H30.431A13.968,13.968,0,0,0,38,55.969,20.945,20.945,0,0,1,35.6,49.05Zm19.873-12.2A13.968,13.968,0,0,0,47.9,29.931,20.941,20.941,0,0,1,50.3,36.85Zm-25.038,0H35.6A20.941,20.941,0,0,1,38,29.931,13.968,13.968,0,0,0,30.431,36.85ZM42.95,29.027c-2.543,0-4.2,5.139-4.738,7.823h9.476C47.155,34.166,45.493,29.027,42.95,29.027Z" transform="translate(-26.45 -26.45)" fill="#42d921" fill-rule="evenodd"/>
    </g>
  </g>
</svg>
