<svg xmlns="http://www.w3.org/2000/svg" width="28" height="28" viewBox="0 0 28 28">
  <g id="Group_1292" data-name="Group 1292" transform="translate(-1685 -108)">
    <rect id="Rectangle_1036" data-name="Rectangle 1036" width="28" height="28" rx="14" transform="translate(1685 108)" fill="red"/>
    <path id="Subtraction_8" data-name="Subtraction 8" d="M9.207,13A53.689,53.689,0,0,1,2,12.6,2.316,2.316,0,0,1,.379,10.968,24.734,24.734,0,0,1,0,6.5,24.838,24.838,0,0,1,.379,2.034,2.374,2.374,0,0,1,2,.383,55.668,55.668,0,0,1,9.207,0a53.689,53.689,0,0,1,7.205.4,2.316,2.316,0,0,1,1.621,1.636,23.713,23.713,0,0,1,.379,4.483,24.814,24.814,0,0,1-.379,4.466,2.316,2.316,0,0,1-1.621,1.636A55.708,55.708,0,0,1,9.207,13ZM7.371,3.717h0V9.285L12.166,6.5,7.371,3.717Z" transform="translate(1690.275 115.998)" fill="#fff"/>
  </g>
</svg>
